PathFileType	4	(X/Y/Z)	TVC_32_Cal_03_0_static_RCNL2025.trc
DataRate	CameraRate	NumFrames	NumMarkers	Units	OrigDataRate	OrigDataStartFrame	OrigNumFrames
100	100	11	27	mm	100	124	197
Frame#	Time	R_Shoulder			L_Shoulder			C7			J_Notch			R_Elbow			L_Elbow			R_Wrist			L_Wrist			R_Asis			L_Asis			R_Psis			L_Psis			Sacral			Thoracic			Sternum			R_Thigh_Lateral			R_Knee_Lateral			R_Shank_Lateral			R_Ankle_Lateral			R_Heel			R_Toe			L_Thigh_Lateral			L_Knee_Lateral			L_Shank_Lateral			L_Ankle_Lateral			L_Heel			L_Toe		
		X1	Y1	Z1	X2	Y2	Z2	X3	Y3	Z3	X4	Y4	Z4	X5	Y5	Z5	X6	Y6	Z6	X7	Y7	Z7	X8	Y8	Z8	X9	Y9	Z9	X10	Y10	Z10	X11	Y11	Z11	X12	Y12	Z12	X13	Y13	Z13	X14	Y14	Z14	X15	Y15	Z15	X16	Y16	Z16	X17	Y17	Z17	X18	Y18	Z18	X19	Y19	Z19	X20	Y20	Z20	X21	Y21	Z21	X22	Y22	Z22	X23	Y23	Z23	X24	Y24	Z24	X25	Y25	Z25	X26	Y26	Z26	X27	Y27	Z27
124	1.23000000	-158.225266	1473.517456	-34.232109	-166.243042	1453.725220	-414.317474	-222.241211	1517.750732	-221.710831	-57.446991	1421.823975	-214.467194	-189.638931	1156.464722	134.453049	-173.469559	1120.190430	-514.629578	-109.870628	894.075684	100.293842	-85.079620	862.062866	-478.922623	-93.134781	1012.913879	-67.220444	-97.151543	1015.319458	-347.956146	-288.504120	1027.130493	-154.344376	-286.051575	1024.377441	-255.520737	-287.277847	1025.753967	-204.932556	-283.526215	1252.917114	-211.769058	-32.445232	1276.822266	-217.937042	-194.791718	638.634277	-2.254216	-178.670090	501.874695	-48.173038	-228.080856	303.360870	4.163444	-240.362213	82.221748	-60.947811	-293.868256	53.786816	-125.950203	-96.976646	41.654095	-55.842514	-163.096008	680.473999	-434.860901	-186.379669	503.127289	-398.321838	-205.651993	360.906830	-462.872284	-198.828232	76.565529	-425.236664	-265.565613	60.853752	-376.885681	-57.884651	40.961643	-404.449921
125	1.24000000	-158.134094	1473.513184	-34.292347	-166.455383	1453.399048	-414.224060	-222.320221	1517.767822	-221.667526	-57.526939	1421.873413	-214.568863	-189.635223	1156.468262	134.466507	-173.519928	1120.198608	-514.627563	-109.838974	894.098480	100.372070	-85.127625	862.096161	-478.986374	-93.151871	1012.913757	-67.312202	-97.181725	1015.469666	-347.893463	-288.515228	1027.089355	-154.323807	-286.074890	1024.403687	-255.503876	-287.295059	1025.746521	-204.913841	-283.509460	1252.899048	-211.766739	-32.452862	1276.844360	-217.898849	-194.771744	638.537354	-2.172033	-178.624817	501.845703	-48.177162	-228.018768	303.064117	3.684220	-240.344833	82.284447	-60.952736	-293.856567	53.757595	-125.965660	-96.985046	41.659473	-55.835678	-163.145264	680.170105	-434.980499	-186.340424	503.150726	-398.311218	-205.607986	360.926636	-462.907990	-198.672195	76.627365	-425.229584	-265.540131	60.939503	-376.889618	-57.906075	40.943794	-404.447693
126	1.25000000	-158.146225	1473.500610	-34.238895	-166.409454	1453.674561	-414.156525	-222.333801	1517.735107	-221.684631	-57.613632	1421.862549	-214.500870	-189.640823	1156.547119	134.522324	-173.527481	1120.206543	-514.673035	-109.767498	894.061340	100.404884	-85.203472	862.133484	-479.034622	-93.250961	1013.025024	-67.298203	-97.280968	1015.727051	-347.934540	-288.489166	1027.063354	-154.342545	-286.028900	1024.280151	-255.533356	-287.259033	1025.671753	-204.937950	-283.527527	1252.913818	-211.765564	-33.677746	1276.947266	-216.565125	-194.757431	638.633606	-2.217478	-178.560272	501.859100	-48.171299	-228.085083	303.358124	4.172217	-240.359161	82.327034	-60.919083	-293.859711	53.768299	-125.962547	-97.005997	41.665600	-55.848408	-163.064850	680.431641	-434.825592	-186.451721	503.233765	-398.343597	-205.634796	360.844238	-462.942291	-198.786774	76.584152	-425.212097	-265.643433	60.869865	-376.880981	-57.890575	40.932117	-404.453461
127	1.26000000	-158.077682	1473.507812	-34.231789	-166.416840	1453.801758	-414.291687	-222.333298	1517.719727	-221.652664	-57.661278	1421.727539	-214.565170	-189.567734	1156.415771	134.534332	-173.521301	1120.256470	-514.670959	-109.708771	893.929626	100.521511	-85.247448	862.136322	-479.137283	-93.283951	1013.056824	-67.296448	-97.172264	1015.521484	-347.930359	-288.562256	1027.046753	-154.321152	-286.007874	1024.337769	-255.586334	-287.285065	1025.692261	-204.953743	-283.574524	1252.918335	-211.845490	-33.897060	1276.910034	-216.487152	-194.663895	638.619995	-2.232426	-178.545746	501.880035	-48.111843	-228.097900	303.381744	4.242851	-240.372208	82.252319	-60.956215	-293.821686	53.837387	-125.891357	-96.980667	41.626354	-55.856049	-163.137314	680.479675	-434.748596	-186.408646	503.199982	-398.367523	-205.640350	360.882477	-462.843140	-198.804260	76.620018	-425.251465	-265.663544	60.814651	-377.000885	-57.905289	40.928631	-404.441284
128	1.27000000	-158.069366	1473.480713	-34.256172	-166.514175	1453.781982	-414.129883	-222.436096	1517.712280	-221.602036	-57.588100	1421.836060	-214.575912	-189.423569	1156.444946	134.549622	-173.603622	1120.298340	-514.735535	-109.607574	894.086304	100.431904	-85.262276	862.161957	-479.228668	-93.329956	1013.084595	-67.235527	-97.276550	1015.472168	-347.933746	-288.575500	1027.049927	-154.316467	-286.140076	1024.357178	-255.547791	-287.357788	1025.703552	-204.932129	-283.682526	1252.900024	-211.798798	-33.759895	1276.934204	-216.609131	-194.569626	638.689453	-2.142242	-178.518143	501.849396	-48.105888	-228.001282	303.453461	4.169528	-240.257172	82.333229	-60.994503	-293.844177	53.774185	-125.980301	-96.935005	41.723816	-55.778618	-163.199890	680.531616	-434.811859	-186.426453	503.166473	-398.358002	-205.617096	360.907288	-462.913147	-198.762573	76.666702	-425.204865	-265.578003	60.879917	-377.063934	-57.891399	40.943333	-404.454407
129	1.28000000	-158.072052	1473.478638	-34.243229	-166.576920	1453.776001	-414.082336	-222.423279	1517.723022	-221.601074	-57.528030	1421.880981	-214.600601	-189.390579	1156.455078	134.541656	-173.678543	1120.305298	-514.857727	-109.569572	894.123779	100.461163	-85.243996	862.193512	-479.233948	-93.308784	1013.062866	-67.266083	-97.209496	1015.496887	-347.886414	-288.544586	1027.009033	-154.343826	-286.180786	1024.301758	-255.579361	-287.362686	1025.655396	-204.961594	-283.688782	1252.915405	-211.778336	-33.691952	1276.944824	-216.656693	-194.549683	638.677979	-2.182590	-178.439285	501.837006	-48.091270	-227.876999	302.908386	3.581746	-240.326157	82.383812	-60.965275	-293.779633	53.797863	-125.952049	-96.923660	41.639481	-55.837898	-163.064026	680.537964	-434.810028	-186.424744	503.168091	-398.369720	-205.692215	360.979462	-462.886322	-198.795166	76.636345	-425.195404	-265.481476	60.923317	-377.127167	-57.882698	40.932770	-404.481293
130	1.29000000	-158.032272	1473.441284	-34.261276	-166.497055	1453.745605	-414.243469	-222.415634	1517.707642	-221.605667	-57.587059	1421.862061	-214.509338	-189.460693	1156.533936	134.603088	-173.672699	1120.322632	-514.704346	-109.546280	894.113495	100.458126	-85.369080	862.134521	-479.308350	-93.292458	1013.056580	-67.276749	-97.281425	1015.487122	-347.912262	-288.553192	1027.058228	-154.322174	-286.172882	1024.294434	-255.586441	-287.363037	1025.676331	-204.954308	-283.694885	1252.948975	-211.767670	-33.633389	1276.929688	-216.746689	-194.495117	638.634033	-2.213111	-178.361374	501.862183	-48.168919	-227.902588	303.303558	4.032362	-240.338318	82.293869	-60.969421	-293.773193	53.800926	-125.946243	-96.953102	41.608273	-55.874874	-163.088287	680.542542	-434.895782	-186.563477	503.249115	-398.346619	-205.695236	360.886292	-462.881622	-198.817474	76.598930	-425.224640	-265.554108	60.894733	-377.075775	-57.892467	40.935020	-404.447937
131	1.30000000	-158.091660	1473.481445	-34.196899	-166.587524	1453.758179	-414.080292	-222.488831	1517.681274	-221.557037	-57.612385	1421.927612	-214.447968	-189.529556	1156.490479	134.634644	-173.655258	1120.356934	-514.721313	-109.475433	894.128723	100.541389	-85.398422	862.154572	-479.313492	-93.327469	1013.081665	-67.244965	-97.385239	1015.448242	-347.811432	-288.564301	1027.010864	-154.314606	-286.166595	1024.274902	-255.558777	-287.365448	1025.642883	-204.936691	-283.682281	1252.898804	-211.713623	-33.633945	1277.056641	-216.705673	-194.442139	638.566162	-2.132552	-178.366745	501.846436	-48.152611	-227.991547	303.443512	4.209041	-240.336151	82.349861	-60.927090	-293.797668	53.775921	-125.998100	-96.958244	41.537277	-55.910580	-163.043716	680.451782	-434.876953	-186.607895	503.249573	-398.369537	-205.709122	360.898529	-462.844147	-198.799667	76.640945	-425.222412	-265.639252	60.839878	-376.947021	-57.936909	40.916061	-404.435883
132	1.31000000	-158.080139	1473.453369	-34.207996	-166.519440	1453.840820	-414.196594	-222.493866	1517.649048	-221.565536	-57.657726	1421.946777	-214.430038	-189.459534	1156.466064	134.700409	-173.611221	1120.361084	-514.746582	-109.368343	894.127930	100.583721	-85.413670	862.178589	-479.338379	-93.288551	1013.041199	-67.286285	-97.410561	1015.445374	-347.801575	-288.562622	1027.005371	-154.315552	-286.193329	1024.184814	-255.545349	-287.377975	1025.595093	-204.930450	-283.695709	1252.901245	-211.715729	-33.646347	1277.081909	-216.638351	-194.400253	638.543152	-2.120211	-178.375809	501.849304	-48.134651	-227.918213	302.968872	3.721169	-240.352371	82.281456	-60.949368	-293.820923	53.821983	-125.971779	-96.930939	41.702404	-55.807423	-163.062668	680.354248	-434.881775	-186.620483	503.249664	-398.296844	-205.691513	360.864319	-462.863098	-198.725662	76.745544	-425.261505	-265.482758	60.922348	-377.051453	-57.906818	40.929996	-404.446503
133	1.32000000	-158.155823	1473.512085	-34.175705	-166.659683	1453.761108	-414.062042	-222.521072	1517.623779	-221.538544	-57.619598	1421.980347	-214.434052	-189.356354	1156.381958	134.595947	-173.755844	1120.362305	-514.807495	-109.315033	894.132202	100.559101	-85.457050	862.235504	-479.376251	-93.171196	1013.027039	-67.229713	-97.385429	1015.472229	-347.838470	-288.682312	1026.957886	-154.242432	-286.187988	1024.193970	-255.445709	-287.435150	1025.575928	-204.844070	-283.780640	1252.892456	-211.678192	-33.655293	1277.073975	-216.640045	-194.446899	638.562195	-2.206832	-178.393204	501.829773	-48.186031	-227.951660	303.313873	4.027559	-240.361115	82.278488	-60.950050	-293.819702	53.849964	-125.898811	-96.933716	41.699024	-55.798973	-163.098251	680.393677	-434.854584	-186.619980	503.228241	-398.292725	-205.702072	360.849030	-462.844330	-198.779175	76.637848	-425.259857	-265.560547	60.892948	-376.911682	-57.855679	40.907360	-404.423187
134	1.33000000	-158.150955	1473.477539	-34.151440	-166.757233	1453.521362	-414.046570	-222.640442	1517.654175	-221.451111	-57.713436	1422.059082	-214.454346	-189.496643	1156.552856	134.682571	-173.729431	1120.378174	-514.847717	-109.281490	894.138245	100.632572	-85.488419	862.238647	-479.413559	-93.248436	1013.033508	-67.285164	-97.470497	1015.493652	-347.893768	-288.702667	1026.923950	-154.219254	-286.246765	1024.288452	-255.384598	-287.474716	1025.606201	-204.801926	-283.794556	1252.878418	-211.670944	-33.626553	1277.141846	-216.687241	-194.603210	638.544128	-2.239764	-178.505386	501.801758	-48.159637	-228.312119	302.809875	3.774547	-240.359833	82.295334	-60.943810	-293.800018	53.808907	-125.919090	-96.961815	41.619259	-55.864155	-163.193451	680.391296	-434.825409	-186.581375	503.165405	-398.279297	-205.767227	360.877655	-462.784363	-198.803238	76.658386	-425.219025	-265.594360	60.820827	-376.811523	-57.887821	40.909328	-404.459290
